<?xml version="1.0" standalone="no"?><!DOCTYPE svg PUBLIC "-//W3C//DTD SVG 1.1//EN" "http://www.w3.org/Graphics/SVG/1.1/DTD/svg11.dtd"><svg t="1783308976989" class="icon" viewBox="0 0 1024 1024" version="1.1" xmlns="http://www.w3.org/2000/svg" p-id="22092" xmlns:xlink="http://www.w3.org/1999/xlink" width="128" height="128"><path d="M782.6432 64.2048a97.792 97.792 0 0 1 50.0224 123.4944l-145.5104 381.184a127.0784 127.0784 0 1 1-229.7344-107.1616l198.4512-356.4544a97.792 97.792 0 0 1 126.7712-41.0624zM289.6384 964.1984c-105.5744-49.2544-180.736-214.2208-127.0784-177.9712 53.6064 36.2496 103.6288 59.5968 130.3552-54.784 11.264-48.0256 50.3296-78.592 95.744-89.9072 35.072-8.704 4.7616 20.48 84.6848 57.7536 79.9744 37.3248 83.2-1.9456 96.1536 33.4336 14.08 38.5024 13.1584 83.456-6.144 124.8256-54.1696 116.1216-167.6288 156.1088-273.7152 106.6496z" p-id="22093"></path></svg>