<?xml version="1.0" standalone="no"?><!DOCTYPE svg PUBLIC "-//W3C//DTD SVG 1.1//EN" "http://www.w3.org/Graphics/SVG/1.1/DTD/svg11.dtd"><svg t="1783309332714" class="icon" viewBox="0 0 1024 1024" version="1.1" xmlns="http://www.w3.org/2000/svg" p-id="49045" xmlns:xlink="http://www.w3.org/1999/xlink" width="128" height="128"><path d="M192 874.666667h640a32 32 0 0 1 3.072 63.850666L832 938.666667H192a32 32 0 0 1-3.072-63.850667L192 874.666667h640H192zM512 85.333333c117.824 0 213.333333 95.509333 213.333333 213.333334 0 73.813333-37.802667 140.266667-96.853333 178.773333l17.109333 98.56H832a64 64 0 0 1 64 64v128a64 64 0 0 1-64 64H192a64 64 0 0 1-64-64v-128a64 64 0 0 1 64-64h186.410667l17.130666-98.538667-5.461333-3.690666A213.333333 213.333333 0 0 1 298.666667 298.666667c0-117.824 95.509333-213.333333 213.333333-213.333334z" p-id="49046"></path></svg>