<?xml version="1.0" standalone="no"?><!DOCTYPE svg PUBLIC "-//W3C//DTD SVG 1.1//EN" "http://www.w3.org/Graphics/SVG/1.1/DTD/svg11.dtd"><svg t="1783309036995" class="icon" viewBox="0 0 1024 1024" version="1.1" xmlns="http://www.w3.org/2000/svg" p-id="24948" xmlns:xlink="http://www.w3.org/1999/xlink" width="128" height="128"><path d="M989.863985 408.966095a32.52419 32.52419 0 0 0 0-46.470095L631.707794 9.606095a33.694476 33.694476 0 0 0-47.104 0L63.387794 523.215238a129.852952 129.852952 0 0 0 0 185.58781l283.014096 277.113904c24.966095 24.380952 58.709333 38.13181 93.866666 38.13181h427.934476c18.432 0 33.304381-14.628571 33.304381-32.816762a32.475429 32.475429 0 0 0-9.752381-23.161905 33.450667 33.450667 0 0 0-23.552-9.654857h-275.21219c-59.294476 0-89.039238-70.607238-47.104-112.054857l443.977143-437.394286zM421.641509 876.056381a67.291429 67.291429 0 0 1-94.159239 0l-216.990476-213.674667a64.902095 64.902095 0 0 1 0-92.793904l133.12-131.120762 311.100953 306.566095-133.071238 131.023238z"  p-id="24949"></path></svg>