<svg t="1783330290330" class="icon" viewBox="0 0 1024 1024" version="1.1" xmlns="http://www.w3.org/2000/svg" p-id="77054" data-spm-anchor-id="a313x.search_index.0.i29.72cf3a81nT3MDy" width="128" height="128"><path d="M382.00082 320.2c-18.6-17-18.6-47.4 0-66.2 18.8-18.6 49.2-18.6 66.2 0l16 16L676.40082 59.64C714.60082 21.46 766.40082 0 820.40082 0 932.80082 0 1024.00082 91.18 1024.00082 203.6c0 54-21.4 105.8-59.6 144L752.20082 558l16 16c20.4 18.8 20.4 49.2 0 66.2-17 20.4-47.4 20.4-66.2 0l-320-320z m546-116.6c0-59.4-48.2-107.6-107.6-107.6-28.6 0-56 11.34-76.2 31.52L533.80082 336.2l152.2 154 210.4-210.4c20.2-20.2 31.6-47.6 31.6-76.2zM106.18082 656.2L366.80082 397.2l68 68L174.06082 725.8a48.02 48.02 0 0 0-14.06 34V864h104.2c12.8 0 25-5 34-15.8l260.6-259 68 68L366.00082 917.8a143.966 143.966 0 0 1-101.8 42.2H158.54082l-83.92 54.2c-19.04 14.4-44.38 12-60.56-6-16.18-14.4-18.69-39.8-5.998-58.8L64.00082 865.4v-105.6c0-38.2 15.18-74.8 42.18-103.6z" p-id="77055"></path></svg>