<?xml version="1.0" standalone="no"?><!DOCTYPE svg PUBLIC "-//W3C//DTD SVG 1.1//EN" "http://www.w3.org/Graphics/SVG/1.1/DTD/svg11.dtd"><svg t="1783309253198" class="icon" viewBox="0 0 1024 1024" version="1.1" xmlns="http://www.w3.org/2000/svg" p-id="42638" xmlns:xlink="http://www.w3.org/1999/xlink" width="128" height="128"><path d="M607.36 24.64q59.968 7.104 113.92 29.44l-32.64 78.656q-43.008-17.856-91.328-23.552L607.36 24.64zM379.392 51.904q55.68-19.52 111.744-26.56l10.624 84.48q-47.104 5.888-94.272 22.4L379.328 51.904zM181.888 164.288q18.304-15.36 40.256-30.72 26.368-18.56 53.568-34.048l42.304 73.856q-23.872 13.632-47.104 29.888-18.88 13.248-34.368 26.24l-54.656-65.28z m641.024-48.832q46.4 38.784 78.272 90.048l-72.32 44.928q-24.64-39.68-60.544-69.696l54.592-65.28zM101.888 398.528q-33.856-68.992 0.896-139.776l76.416 37.44q-16.32 33.28-0.896 64.832l-76.416 37.504z m845.696-83.776q13.504 52.544 13.504 109.696v6.848h-85.12v-6.848q0-46.4-10.88-88.512l82.56-21.12zM281.728 551.36q-56.96-29.12-96.896-59.392l51.392-67.84q34.048 25.728 84.288 51.456l-38.784 75.776z m160.96 77.312l-4.416-10.624q-29.44-10.688-56.32-21.504l31.744-78.976q33.344 13.44 71.04 26.688l18.112 6.4 7.168 17.92q5.504 13.824 11.072 26.944l-64 27.136-0.704 1.92-2.112-0.768-11.52 4.864zM960.768 537.6q-0.576 64.384-2.624 108.544l-85.056-4.032q1.984-42.496 2.56-105.28l85.12 0.768z m-410.24 285.888q-31.232-40.768-60.608-95.36l74.944-40.32q26.176 48.64 53.248 83.968l-67.584 51.712z m396.864-65.664q-12.16 72.96-39.872 115.456l-71.296-46.528q17.984-27.52 27.2-82.88l83.968 13.952z m-156.224 187.136q-15.488 2.112-32.64 2.112-64.256 0-123.008-40.128l48-70.272q36.992 25.28 75.008 25.28 11.456 0 21.248-1.28l11.392 84.288z" p-id="42639"></path></svg>