<svg t="1783315425836" class="icon" viewBox="0 0 1024 1024" version="1.1" xmlns="http://www.w3.org/2000/svg" p-id="59157" width="128" height="128"><path d="M394.549443 0c-8.279821 0-16.559642 0.323431-25.033521 0.776233a35.447984 35.447984 0 0 0-27.168163 54.853815 35.577356 35.577356 0 0 0 31.69619 15.783409 308.811454 308.811454 0 0 1 128.725344 18.564912 35.318612 35.318612 0 1 0 24.386661-66.238569A376.473117 376.473117 0 0 0 394.549443 0zM216.85672 43.598433a381.712692 381.712692 0 0 0-122.321421 100.91032 35.577356 35.577356 0 0 0 21.863903 58.217493 35.447984 35.447984 0 0 0 33.313343-14.166257 310.622665 310.622665 0 0 1 100.004715-82.345408 35.447984 35.447984 0 1 0-32.86054-62.616148z m449.180296 68.890699l-4.528027-4.398655a35.383298 35.383298 0 0 0-49.032066 50.778591l3.622422 3.49305c14.230943 14.230943 26.844733 29.626235 38.229487 46.379935a35.383298 35.383298 0 0 0 58.476236-39.523209 386.822894 386.822894 0 0 0-46.768052-56.729712zM10.637424 384.041391c0 20.634867 1.552466 41.075675 4.851458 61.451798a35.318612 35.318612 0 0 0 69.666933-11.320068 314.568517 314.568517 0 0 1 6.080493-130.019066 35.383298 35.383298 0 1 0-68.308524-17.982737A397.625473 397.625473 0 0 0 10.637424 384.106077z m62.163345 209.388914c14.554373 22.316705 31.437446 42.951572 50.325788 61.839915a35.253926 35.253926 0 0 0 49.808299-49.808299c-15.459979-15.524665-29.173432-32.343051-41.075675-50.649219a35.318612 35.318612 0 1 0-59.058412 38.617603z m803.077964-347.04094c20.828925-10.608521 63.392381-19.0824 104.856172 12.160987 18.306167 13.77814 55.953479 55.630048 12.160988 144.055951-9.702915 19.405831-84.350678 128.595972-211.394184 254.539814-104.338684 103.433078-145.284986 133.44743-208.547994 159.063126 0.452803 47.479599-18.112109 91.207405-40.946303 118.116823-27.944396 32.472424-100.58689 88.425902-193.86425 89.654939h-3.169619c-71.801574 0-139.657296-33.248657-197.163241-97.029154l-1.681839-1.552467c-3.622422-4.98083-22.381392-30.143724-12.225673-62.163344 7.63296-24.839463 28.785316-42.175339 63.004264-52.395744 36.35359-10.867265 40.105384-21.799217 49.032066-48.061774v-0.194058l2.522758-6.856727c22.640136-49.549555 91.660207-128.595972 197.163241-101.363123 22.963566-42.498769 71.801574-118.116823 161.521198-205.054945 135.193954-130.730613 191.729608-164.043956 278.797102-202.920304z m-539.482096 698.868653c67.791036-0.776233 120.122093-45.021527 134.676466-62.033973a104.144625 104.144625 0 0 0 19.858633-86.032516c-6.46861-27.232849-26.71536-47.997088-60.028703-60.998995-73.095296-28.72063-110.742608 34.089576-119.345859 51.554824l-0.323431 0.776233-0.129372 0.517489c-10.996637 32.019621-26.262558 76.329601-102.204042 98.58162 39.846639 39.070406 82.798211 58.864353 127.496308 57.570632z m388.763477-344.194752c123.421084-122.192048 191.212119-223.749229 196.387008-233.710889 14.230943-28.785316 12.937221-43.14563 11.384754-44.568725-10.608521-8.085763-17.982737-6.080494-20.634867-4.98083l-3.234305 2.005269 0.711547-1.099663c-79.17579 35.318612-130.601241 65.785766-257.644747 188.236558-79.952023 77.558637-123.873887 144.573439-144.508753 181.897321 18.435539 13.325337 33.636773 30.467154 44.698097 50.325788 43.727805-18.75897 79.046417-45.603702 172.77658-138.104829z" ></path></svg>