<?xml version="1.0" standalone="no"?><!DOCTYPE svg PUBLIC "-//W3C//DTD SVG 1.1//EN" "http://www.w3.org/Graphics/SVG/1.1/DTD/svg11.dtd"><svg t="1783308628262" class="icon" viewBox="0 0 1024 1024" version="1.1" xmlns="http://www.w3.org/2000/svg" p-id="6292" xmlns:xlink="http://www.w3.org/1999/xlink" width="128" height="128"><path d="M230.428444 151.438222l54.670223-100.010666 54.698666 100.010666 99.982223 54.670222-99.982223 54.670223-54.670222 100.124444L230.4 260.750222 130.446222 206.108444 230.4 151.438222z m519.537778 634.624l-40.590222 74.325334-40.504889-74.325334-74.296889-40.590222 74.211556-40.590222 40.590222-74.325334 40.590222 74.325334 74.325334 40.590222-74.325334 40.590222z m154.88-229.916444l-40.590222 74.325333-40.590222-74.325333-74.325334-40.590222 74.24-40.590223 40.590223-74.296889 40.590222 74.211556 74.296889 40.590222-74.211556 40.675556z m-156.529778-273.891556a109.624889 109.624889 0 0 0-77.169777-32.056889 109.084444 109.084444 0 0 0-77.084445 31.971556L92.928 783.303111a109.056 109.056 0 1 0 154.254222 154.282667l501.134222-501.162667a109.056 109.056 0 0 0 31.971556-77.084444c0-28.871111-11.491556-56.604444-31.971556-77.084445z m-41.415111 118.186667l-163.726222 163.726222a107.975111 107.975111 0 0 0-28.16-48.497778 107.036444 107.036444 0 0 0-48.611555-28.16l163.84-163.84a54.044444 54.044444 0 0 1 52.394666-14.08 54.328889 54.328889 0 0 1 24.263111 90.851556z" ></path></svg>