<?xml version="1.0" standalone="no"?><!DOCTYPE svg PUBLIC "-//W3C//DTD SVG 1.1//EN" "http://www.w3.org/Graphics/SVG/1.1/DTD/svg11.dtd"><svg t="1783309169674" class="icon" viewBox="0 0 1024 1024" version="1.1" xmlns="http://www.w3.org/2000/svg" p-id="34747" xmlns:xlink="http://www.w3.org/1999/xlink" width="128" height="128"><path d="M93.866667 277.333333V128a34.133333 34.133333 0 0 1 34.133333-34.133333h149.333333a34.133333 34.133333 0 0 1 0 68.266666H162.133333v115.2a34.133333 34.133333 0 0 1-68.266666 0z m343.466666-183.466666h149.333334a34.133333 34.133333 0 0 1 0 68.266666h-149.333334a34.133333 34.133333 0 0 1 0-68.266666z m424.533334 183.466666V162.133333h-115.2a34.133333 34.133333 0 0 1 0-68.266666H896a34.133333 34.133333 0 0 1 34.133333 34.133333v149.333333a34.133333 34.133333 0 0 1-68.266666 0zM128 403.2a34.133333 34.133333 0 0 0-34.133333 34.133333v149.333334a34.133333 34.133333 0 0 0 68.266666 0v-149.333334a34.133333 34.133333 0 0 0-34.133333-34.133333z m768 0a34.133333 34.133333 0 0 0-34.133333 34.133333v149.333334a34.133333 34.133333 0 0 0 68.266666 0v-149.333334a34.133333 34.133333 0 0 0-34.133333-34.133333zM128 712.533333a34.133333 34.133333 0 0 0-34.133333 34.133334V896a34.133333 34.133333 0 0 0 34.133333 34.133333h149.333333a34.133333 34.133333 0 0 0 0-68.266666H162.133333v-115.2a34.133333 34.133333 0 0 0-34.133333-34.133334z m768 0a34.133333 34.133333 0 0 0-34.133333 34.133334v115.2h-115.2a34.133333 34.133333 0 0 0 0 68.266666H896a34.133333 34.133333 0 0 0 34.133333-34.133333v-149.333333a34.133333 34.133333 0 0 0-34.133333-34.133334z m-458.666667 149.333334h149.333334a34.133333 34.133333 0 0 1 0 68.266666h-149.333334a34.133333 34.133333 0 0 1 0-68.266666z" p-id="34748"></path></svg>