<?xml version="1.0" standalone="no"?><!DOCTYPE svg PUBLIC "-//W3C//DTD SVG 1.1//EN" "http://www.w3.org/Graphics/SVG/1.1/DTD/svg11.dtd"><svg t="1783308729100" class="icon" viewBox="0 0 1024 1024" version="1.1" xmlns="http://www.w3.org/2000/svg" p-id="11580" xmlns:xlink="http://www.w3.org/1999/xlink" width="128" height="128"><path d="M960.077135 0.831042c22.125723-2.043513 35.527527-0.315925 40.202412 5.175766 4.674885 5.49169 6.016565 20.25117 4.02404 44.274441-2.702355 24.749097-5.385716 52.776413-8.048081 84.077948-2.659366 31.305534-5.318732 62.974981-7.977097 95.007341-2.655367 32.03236-5.49169 63.515852-8.513969 94.450474-3.022279 30.938621-5.527682 58.422067-7.520206 82.445337-1.996524 24.023271-8.872884 38.000937-20.63008 41.931-11.757196 3.929063-25.541908-2.169483-41.355137-18.298636-8.624943-8.793903-20.476117-20.160192-35.559519-34.098868-15.082403-13.938676-26.58366-25.667878-34.497772-35.188608-11.496258-11.725204-23.652359-13.989664-36.462304-6.790381-12.806946 7.200283-27.372472 19.126438-43.694579 35.772468l-28.738146 29.314009c-11.354292 11.583237-23.77433 23.885303-37.263113 36.908198-13.484784 13.023894-27.325483 26.772615-41.520098 41.252162l-40.443354 41.252162-13.839699 14.116633-47.895577 48.858347c-18.452599 18.819512-37.791987 38.174895-58.020162 58.075149-20.227176 19.900254-39.567563 39.259637-58.016163 58.079148l-45.769084 46.684866c-12.065123 12.305065-19.675308 23.001514-22.831555 32.083348-3.156247 9.081834-0.058986 19.122439 9.290784 30.10682 10.0646 10.261553 22.823557 24.003275 38.284869 41.220169 15.457313 17.216894 28.21727 30.228791 38.269873 39.03469 15.80923 16.128153 20.006229 30.540716 12.585998 43.240687-7.417231 12.699971-24.686112 20.417131-51.805645 23.155478-24.982042 2.023517-52.811405 5.483692-83.487089 10.384523s-61.890239 9.981619-93.633669 15.236366c-31.744429 5.254747-62.60007 10.336535-92.560925 15.244364-29.960854 4.90383-56.366557 8.00909-79.210109 9.318778-22.125723 2.043513-35.523528 0.315925-40.202412-5.179765-4.674885-5.49169-5.657651-19.884258-2.943298-43.173703 2.702355-24.749097 5.91359-53.684197 9.634702-86.800298s7.977097-66.778074 12.758957-100.979917c4.789858-34.201843 9.219801-67.681858 13.299828-100.436046 4.083026-32.750189 7.480216-60.769507 10.19057-84.062951 1.992525-24.023271 9.2238-37.996938 21.698825-41.923002 12.471026-3.926064 26.251739 1.806569 41.347139 17.205896 9.342772 9.523729 21.197944 21.25693 35.566518 35.188608 14.368573 13.934677 25.505917 24.934053 33.413031 32.995131 12.215087 12.463028 23.4784 14.538533 33.779944 6.229514 10.301543-8.313017 23.612369-20.788042 39.934476-37.433072 16.322107-16.649029 37.969944-38.359851 64.935513-65.137465 26.970568-26.776614 52.164559-52.109572 75.583974-75.994876l7.449223-7.598188 50.026069-51.02883c20.579092-20.988994 41.872014-42.340902 63.870767-64.047725 22.002752-21.710822 42.940759-42.695817 62.80902-62.966983l48.961323-49.940089c11.354292-11.579238 18.787519-22.093731 22.298682-31.538478 3.511163-9.448747-0.121971-19.671308-10.9014-30.666686-10.060601-10.261553-21.746813-22.902538-35.049641-37.917957-13.303827-15.019418-24.627127-27.293491-33.972898-36.821218-15.801231-14.672501-20.350147-28.359236-13.642746-41.063207 6.703401-12.70397 23.616368-20.425129 50.736899-23.162476 24.982042-2.023517 52.101574-4.761864 81.356597-8.210042 29.258022-3.456176 59.052916-6.722397 89.380683-9.799663 30.331766-3.085264 59.771745-6.355484 88.311938-9.81166C912.619454 5.620899 937.952412 2.870555 960.077135 0.831042L960.077135 0.831042z" ></path></svg>